<mxfile host="app.diagrams.net" modified="2020-08-04T18:53:28.492Z" agent="5.0 (Macintosh; Intel Mac OS X 10_15_6) AppleWebKit/537.36 (KHTML, like Gecko) Chrome/84.0.4147.105 Safari/537.36" etag="3Z2UyPXS-mBCMvVNqSKC" version="13.5.9" type="github">
  <diagram name="Page-1" id="e3a06f82-3646-2815-327d-82caf3d4e204">
    <mxGraphModel dx="2205" dy="1244" grid="1" gridSize="10" guides="1" tooltips="1" connect="1" arrows="1" fold="1" page="1" pageScale="1.5" pageWidth="1169" pageHeight="826" background="none" math="0" shadow="0">
      <root>
        <mxCell id="0" style=";html=1;" />
        <mxCell id="1" style=";html=1;" parent="0" />
        <mxCell id="6a7d8f32e03d9370-59" value="负载均衡" style="whiteSpace=wrap;html=1;fillColor=#EDEDED;fontSize=14;strokeColor=none;verticalAlign=top;" parent="1" vertex="1">
          <mxGeometry x="40" y="360" width="700" height="100" as="geometry" />
        </mxCell>
        <mxCell id="6a7d8f32e03d9370-58" value="安全防护" style="whiteSpace=wrap;html=1;fillColor=#dae8fc;fontSize=14;strokeColor=none;verticalAlign=top;" parent="1" vertex="1">
          <mxGeometry x="370" y="140" width="190" height="190" as="geometry" />
        </mxCell>
        <mxCell id="6a7d8f32e03d9370-57" value="应用服务" style="whiteSpace=wrap;html=1;fillColor=#FFD470;gradientColor=none;fontSize=14;strokeColor=none;verticalAlign=top;" parent="1" vertex="1">
          <mxGeometry x="40" y="470" width="700" height="218" as="geometry" />
        </mxCell>
        <mxCell id="6a7d8f32e03d9370-42" style="edgeStyle=none;rounded=0;html=1;startSize=10;endSize=10;jettySize=auto;orthogonalLoop=1;fontSize=14;endArrow=none;endFill=0;strokeWidth=2;" parent="1" source="6a7d8f32e03d9370-11" target="NJ1eLVqQCY84t7jj5M7B-1" edge="1">
          <mxGeometry relative="1" as="geometry" />
        </mxCell>
        <mxCell id="6a7d8f32e03d9370-11" value="" style="verticalLabelPosition=bottom;aspect=fixed;html=1;verticalAlign=top;strokeColor=none;shape=mxgraph.citrix.xenapp_server;fillColor=#66B2FF;gradientColor=#0066CC;fontSize=14;" parent="1" vertex="1">
          <mxGeometry x="139.4999999999999" y="590" width="76" height="89" as="geometry" />
        </mxCell>
        <mxCell id="6a7d8f32e03d9370-43" style="edgeStyle=none;rounded=0;html=1;startSize=10;endSize=10;jettySize=auto;orthogonalLoop=1;fontSize=14;endArrow=none;endFill=0;strokeWidth=2;exitX=0.161;exitY=0.249;exitDx=0;exitDy=0;exitPerimeter=0;" parent="1" source="6a7d8f32e03d9370-12" target="NJ1eLVqQCY84t7jj5M7B-1" edge="1">
          <mxGeometry relative="1" as="geometry" />
        </mxCell>
        <mxCell id="6a7d8f32e03d9370-12" value="" style="verticalLabelPosition=bottom;aspect=fixed;html=1;verticalAlign=top;strokeColor=none;shape=mxgraph.citrix.xenapp_server;fillColor=#66B2FF;gradientColor=#0066CC;fontSize=14;" parent="1" vertex="1">
          <mxGeometry x="419.5000000000001" y="590" width="76" height="89" as="geometry" />
        </mxCell>
        <mxCell id="6a7d8f32e03d9370-56" style="edgeStyle=none;rounded=0;html=1;startSize=10;endSize=10;jettySize=auto;orthogonalLoop=1;fontSize=14;endArrow=none;endFill=0;strokeWidth=2;exitX=0.603;exitY=0.351;exitDx=0;exitDy=0;exitPerimeter=0;" parent="1" source="NJ1eLVqQCY84t7jj5M7B-4" target="6a7d8f32e03d9370-25" edge="1">
          <mxGeometry relative="1" as="geometry">
            <mxPoint x="780.5" y="563" as="sourcePoint" />
          </mxGeometry>
        </mxCell>
        <mxCell id="6a7d8f32e03d9370-25" value="高防实例" style="verticalLabelPosition=bottom;aspect=fixed;html=1;verticalAlign=top;strokeColor=none;shape=mxgraph.citrix.proxy_server;fillColor=#66B2FF;gradientColor=#0066CC;fontSize=14;" parent="1" vertex="1">
          <mxGeometry x="426.75" y="210" width="76.5" height="90" as="geometry" />
        </mxCell>
        <mxCell id="6a7d8f32e03d9370-62" value="网络拓扑" style="text;strokeColor=none;fillColor=none;html=1;fontSize=24;fontStyle=1;verticalAlign=middle;align=center;" parent="1" vertex="1">
          <mxGeometry x="14.25" y="70" width="711" height="40" as="geometry" />
        </mxCell>
        <mxCell id="NJ1eLVqQCY84t7jj5M7B-1" value="" style="verticalLabelPosition=bottom;aspect=fixed;html=1;verticalAlign=top;strokeColor=none;shape=mxgraph.citrix.router;fillColor=#66B2FF;gradientColor=#0066CC;fontSize=14;" vertex="1" parent="1">
          <mxGeometry x="150" y="400" width="55" height="36.5" as="geometry" />
        </mxCell>
        <mxCell id="NJ1eLVqQCY84t7jj5M7B-2" style="edgeStyle=none;rounded=0;html=1;startSize=10;endSize=10;jettySize=auto;orthogonalLoop=1;fontSize=14;endArrow=none;endFill=0;strokeWidth=2;" edge="1" parent="1" source="6a7d8f32e03d9370-11">
          <mxGeometry relative="1" as="geometry">
            <mxPoint x="386.64396187002455" y="590" as="sourcePoint" />
            <mxPoint x="440" y="440" as="targetPoint" />
          </mxGeometry>
        </mxCell>
        <mxCell id="NJ1eLVqQCY84t7jj5M7B-3" style="edgeStyle=none;rounded=0;html=1;startSize=10;endSize=10;jettySize=auto;orthogonalLoop=1;fontSize=14;endArrow=none;endFill=0;strokeWidth=2;" edge="1" target="NJ1eLVqQCY84t7jj5M7B-4" parent="1" source="6a7d8f32e03d9370-12">
          <mxGeometry relative="1" as="geometry">
            <mxPoint x="550.0038853503182" y="590" as="sourcePoint" />
          </mxGeometry>
        </mxCell>
        <mxCell id="NJ1eLVqQCY84t7jj5M7B-4" value="" style="verticalLabelPosition=bottom;aspect=fixed;html=1;verticalAlign=top;strokeColor=none;shape=mxgraph.citrix.router;fillColor=#66B2FF;gradientColor=#0066CC;fontSize=14;" vertex="1" parent="1">
          <mxGeometry x="430" y="400" width="55" height="36.5" as="geometry" />
        </mxCell>
        <mxCell id="NJ1eLVqQCY84t7jj5M7B-5" value="负载均衡" style="whiteSpace=wrap;html=1;fillColor=#EDEDED;fontSize=14;strokeColor=none;verticalAlign=top;" vertex="1" parent="1">
          <mxGeometry x="960" y="364.25" width="850" height="100" as="geometry" />
        </mxCell>
        <mxCell id="NJ1eLVqQCY84t7jj5M7B-6" value="安全防护" style="whiteSpace=wrap;html=1;fillColor=#dae8fc;fontSize=14;strokeColor=none;verticalAlign=top;" vertex="1" parent="1">
          <mxGeometry x="1230" y="140" width="190" height="190" as="geometry" />
        </mxCell>
        <mxCell id="NJ1eLVqQCY84t7jj5M7B-7" value="应用服务" style="whiteSpace=wrap;html=1;fillColor=#FFD470;gradientColor=none;fontSize=14;strokeColor=none;verticalAlign=top;" vertex="1" parent="1">
          <mxGeometry x="960" y="474.25" width="850" height="218" as="geometry" />
        </mxCell>
        <mxCell id="NJ1eLVqQCY84t7jj5M7B-8" style="edgeStyle=none;rounded=0;html=1;startSize=10;endSize=10;jettySize=auto;orthogonalLoop=1;fontSize=14;endArrow=none;endFill=0;strokeWidth=2;" edge="1" source="NJ1eLVqQCY84t7jj5M7B-9" target="NJ1eLVqQCY84t7jj5M7B-14" parent="1">
          <mxGeometry relative="1" as="geometry" />
        </mxCell>
        <mxCell id="NJ1eLVqQCY84t7jj5M7B-9" value="" style="verticalLabelPosition=bottom;aspect=fixed;html=1;verticalAlign=top;strokeColor=none;shape=mxgraph.citrix.xenapp_server;fillColor=#66B2FF;gradientColor=#0066CC;fontSize=14;" vertex="1" parent="1">
          <mxGeometry x="1059.5" y="590.25" width="76" height="89" as="geometry" />
        </mxCell>
        <mxCell id="NJ1eLVqQCY84t7jj5M7B-10" style="edgeStyle=none;rounded=0;html=1;startSize=10;endSize=10;jettySize=auto;orthogonalLoop=1;fontSize=14;endArrow=none;endFill=0;strokeWidth=2;exitX=0.161;exitY=0.249;exitDx=0;exitDy=0;exitPerimeter=0;" edge="1" source="NJ1eLVqQCY84t7jj5M7B-11" target="NJ1eLVqQCY84t7jj5M7B-14" parent="1">
          <mxGeometry relative="1" as="geometry" />
        </mxCell>
        <mxCell id="NJ1eLVqQCY84t7jj5M7B-11" value="" style="verticalLabelPosition=bottom;aspect=fixed;html=1;verticalAlign=top;strokeColor=none;shape=mxgraph.citrix.xenapp_server;fillColor=#66B2FF;gradientColor=#0066CC;fontSize=14;" vertex="1" parent="1">
          <mxGeometry x="1230" y="590" width="76" height="89" as="geometry" />
        </mxCell>
        <mxCell id="NJ1eLVqQCY84t7jj5M7B-12" style="edgeStyle=none;rounded=0;html=1;startSize=10;endSize=10;jettySize=auto;orthogonalLoop=1;fontSize=14;endArrow=none;endFill=0;strokeWidth=2;exitX=0.603;exitY=0.351;exitDx=0;exitDy=0;exitPerimeter=0;" edge="1" source="NJ1eLVqQCY84t7jj5M7B-17" target="NJ1eLVqQCY84t7jj5M7B-13" parent="1">
          <mxGeometry relative="1" as="geometry">
            <mxPoint x="1700.5" y="567.25" as="sourcePoint" />
          </mxGeometry>
        </mxCell>
        <mxCell id="NJ1eLVqQCY84t7jj5M7B-13" value="高防实例" style="verticalLabelPosition=bottom;aspect=fixed;html=1;verticalAlign=top;strokeColor=none;shape=mxgraph.citrix.proxy_server;fillColor=#66B2FF;gradientColor=#0066CC;fontSize=14;" vertex="1" parent="1">
          <mxGeometry x="1286.75" y="210" width="76.5" height="90" as="geometry" />
        </mxCell>
        <mxCell id="NJ1eLVqQCY84t7jj5M7B-14" value="" style="verticalLabelPosition=bottom;aspect=fixed;html=1;verticalAlign=top;strokeColor=none;shape=mxgraph.citrix.router;fillColor=#66B2FF;gradientColor=#0066CC;fontSize=14;" vertex="1" parent="1">
          <mxGeometry x="1105" y="400" width="55" height="36.5" as="geometry" />
        </mxCell>
        <mxCell id="NJ1eLVqQCY84t7jj5M7B-15" style="edgeStyle=none;rounded=0;html=1;startSize=10;endSize=10;jettySize=auto;orthogonalLoop=1;fontSize=14;endArrow=none;endFill=0;strokeWidth=2;" edge="1" parent="1" target="NJ1eLVqQCY84t7jj5M7B-17">
          <mxGeometry relative="1" as="geometry">
            <mxPoint x="1132" y="593" as="sourcePoint" />
            <mxPoint x="1360" y="444.25" as="targetPoint" />
          </mxGeometry>
        </mxCell>
        <mxCell id="NJ1eLVqQCY84t7jj5M7B-16" style="edgeStyle=none;rounded=0;html=1;startSize=10;endSize=10;jettySize=auto;orthogonalLoop=1;fontSize=14;endArrow=none;endFill=0;strokeWidth=2;" edge="1" source="NJ1eLVqQCY84t7jj5M7B-11" target="NJ1eLVqQCY84t7jj5M7B-17" parent="1">
          <mxGeometry relative="1" as="geometry">
            <mxPoint x="1360.5038853503183" y="590" as="sourcePoint" />
          </mxGeometry>
        </mxCell>
        <mxCell id="NJ1eLVqQCY84t7jj5M7B-28" style="edgeStyle=none;rounded=0;html=1;startSize=10;endSize=10;jettySize=auto;orthogonalLoop=1;fontSize=14;endArrow=none;endFill=0;strokeWidth=2;" edge="1" source="NJ1eLVqQCY84t7jj5M7B-29" target="NJ1eLVqQCY84t7jj5M7B-32" parent="1">
          <mxGeometry relative="1" as="geometry" />
        </mxCell>
        <mxCell id="NJ1eLVqQCY84t7jj5M7B-29" value="" style="verticalLabelPosition=bottom;aspect=fixed;html=1;verticalAlign=top;strokeColor=none;shape=mxgraph.citrix.xenapp_server;fillColor=#66B2FF;gradientColor=#0066CC;fontSize=14;" vertex="1" parent="1">
          <mxGeometry x="1380" y="590" width="76" height="89" as="geometry" />
        </mxCell>
        <mxCell id="NJ1eLVqQCY84t7jj5M7B-30" style="edgeStyle=none;rounded=0;html=1;startSize=10;endSize=10;jettySize=auto;orthogonalLoop=1;fontSize=14;endArrow=none;endFill=0;strokeWidth=2;exitX=0.161;exitY=0.249;exitDx=0;exitDy=0;exitPerimeter=0;" edge="1" source="NJ1eLVqQCY84t7jj5M7B-31" target="NJ1eLVqQCY84t7jj5M7B-32" parent="1">
          <mxGeometry relative="1" as="geometry" />
        </mxCell>
        <mxCell id="NJ1eLVqQCY84t7jj5M7B-31" value="" style="verticalLabelPosition=bottom;aspect=fixed;html=1;verticalAlign=top;strokeColor=none;shape=mxgraph.citrix.xenapp_server;fillColor=#66B2FF;gradientColor=#0066CC;fontSize=14;" vertex="1" parent="1">
          <mxGeometry x="1550.5" y="589.75" width="76" height="89" as="geometry" />
        </mxCell>
        <mxCell id="NJ1eLVqQCY84t7jj5M7B-32" value="" style="verticalLabelPosition=bottom;aspect=fixed;html=1;verticalAlign=top;strokeColor=none;shape=mxgraph.citrix.router;fillColor=#66B2FF;gradientColor=#0066CC;fontSize=14;" vertex="1" parent="1">
          <mxGeometry x="1525" y="400" width="55" height="36.5" as="geometry" />
        </mxCell>
        <mxCell id="NJ1eLVqQCY84t7jj5M7B-36" style="edgeStyle=none;rounded=0;html=1;startSize=10;endSize=10;jettySize=auto;orthogonalLoop=1;fontSize=14;endArrow=none;endFill=0;strokeWidth=2;exitX=0.136;exitY=0.062;exitDx=0;exitDy=0;exitPerimeter=0;" edge="1" parent="1" source="NJ1eLVqQCY84t7jj5M7B-29" target="NJ1eLVqQCY84t7jj5M7B-17">
          <mxGeometry relative="1" as="geometry">
            <mxPoint x="1252.2359999999999" y="622.1610000000001" as="sourcePoint" />
            <mxPoint x="1280" y="431" as="targetPoint" />
          </mxGeometry>
        </mxCell>
        <mxCell id="NJ1eLVqQCY84t7jj5M7B-37" style="edgeStyle=none;rounded=0;html=1;startSize=10;endSize=10;jettySize=auto;orthogonalLoop=1;fontSize=14;endArrow=none;endFill=0;strokeWidth=2;exitX=0.261;exitY=0.177;exitDx=0;exitDy=0;exitPerimeter=0;entryX=0.759;entryY=0.895;entryDx=0;entryDy=0;entryPerimeter=0;" edge="1" parent="1" source="NJ1eLVqQCY84t7jj5M7B-31" target="NJ1eLVqQCY84t7jj5M7B-17">
          <mxGeometry relative="1" as="geometry">
            <mxPoint x="1411.7360000000003" y="616.9100000000001" as="sourcePoint" />
            <mxPoint x="1291.75" y="441.24400000000014" as="targetPoint" />
          </mxGeometry>
        </mxCell>
        <mxCell id="NJ1eLVqQCY84t7jj5M7B-17" value="" style="verticalLabelPosition=bottom;aspect=fixed;html=1;verticalAlign=top;strokeColor=none;shape=mxgraph.citrix.router;fillColor=#66B2FF;gradientColor=#0066CC;fontSize=14;" vertex="1" parent="1">
          <mxGeometry x="1290" y="400" width="55" height="36.5" as="geometry" />
        </mxCell>
        <mxCell id="NJ1eLVqQCY84t7jj5M7B-38" style="edgeStyle=none;rounded=0;html=1;startSize=10;endSize=10;jettySize=auto;orthogonalLoop=1;fontSize=14;endArrow=none;endFill=0;strokeWidth=2;exitX=0.531;exitY=0.158;exitDx=0;exitDy=0;exitPerimeter=0;" edge="1" parent="1" source="NJ1eLVqQCY84t7jj5M7B-11" target="NJ1eLVqQCY84t7jj5M7B-32">
          <mxGeometry relative="1" as="geometry">
            <mxPoint x="1428" y="600" as="sourcePoint" />
            <mxPoint x="1428" y="449.5000000000002" as="targetPoint" />
          </mxGeometry>
        </mxCell>
        <mxCell id="NJ1eLVqQCY84t7jj5M7B-39" style="edgeStyle=none;rounded=0;html=1;startSize=10;endSize=10;jettySize=auto;orthogonalLoop=1;fontSize=14;endArrow=none;endFill=0;strokeWidth=2;entryX=0.153;entryY=0.813;entryDx=0;entryDy=0;entryPerimeter=0;exitX=0.838;exitY=0.204;exitDx=0;exitDy=0;exitPerimeter=0;" edge="1" parent="1" source="NJ1eLVqQCY84t7jj5M7B-9" target="NJ1eLVqQCY84t7jj5M7B-32">
          <mxGeometry relative="1" as="geometry">
            <mxPoint x="1438" y="610" as="sourcePoint" />
            <mxPoint x="1438" y="459.5000000000002" as="targetPoint" />
          </mxGeometry>
        </mxCell>
        <mxCell id="NJ1eLVqQCY84t7jj5M7B-40" value="主高防方案" style="text;strokeColor=none;fillColor=none;html=1;fontSize=24;fontStyle=1;verticalAlign=middle;align=center;" vertex="1" parent="1">
          <mxGeometry x="980" y="60" width="711" height="40" as="geometry" />
        </mxCell>
        <mxCell id="NJ1eLVqQCY84t7jj5M7B-42" value="&lt;span style=&quot;font-size: 14px&quot;&gt;2020.8.3 前实例&lt;br&gt;&lt;/span&gt;" style="text;html=1;strokeColor=none;fillColor=none;align=center;verticalAlign=middle;whiteSpace=wrap;rounded=0;" vertex="1" parent="1">
          <mxGeometry x="115.5" y="370" width="144" height="20" as="geometry" />
        </mxCell>
        <mxCell id="NJ1eLVqQCY84t7jj5M7B-43" value="&lt;span style=&quot;font-size: 14px&quot;&gt;展前服务实例&lt;/span&gt;" style="text;html=1;strokeColor=none;fillColor=none;align=center;verticalAlign=middle;whiteSpace=wrap;rounded=0;" vertex="1" parent="1">
          <mxGeometry x="1082.5" y="370" width="100" height="20" as="geometry" />
        </mxCell>
        <mxCell id="NJ1eLVqQCY84t7jj5M7B-44" value="&lt;span style=&quot;font-size: 14px&quot;&gt;2020.8.4 实例&lt;br&gt;&lt;/span&gt;" style="text;html=1;strokeColor=none;fillColor=none;align=center;verticalAlign=middle;whiteSpace=wrap;rounded=0;" vertex="1" parent="1">
          <mxGeometry x="469.5" y="370" width="144" height="20" as="geometry" />
        </mxCell>
        <mxCell id="NJ1eLVqQCY84t7jj5M7B-45" value="&lt;span style=&quot;font-size: 14px&quot;&gt;展中服务实例&lt;/span&gt;" style="text;html=1;strokeColor=none;fillColor=none;align=center;verticalAlign=middle;whiteSpace=wrap;rounded=0;" vertex="1" parent="1">
          <mxGeometry x="1345" y="390" width="100" height="20" as="geometry" />
        </mxCell>
        <mxCell id="NJ1eLVqQCY84t7jj5M7B-46" value="&lt;span style=&quot;font-size: 14px&quot;&gt;展中备用服务实例&lt;/span&gt;" style="text;html=1;strokeColor=none;fillColor=none;align=center;verticalAlign=middle;whiteSpace=wrap;rounded=0;" vertex="1" parent="1">
          <mxGeometry x="1525" y="370" width="115" height="20" as="geometry" />
        </mxCell>
        <mxCell id="NJ1eLVqQCY84t7jj5M7B-47" value="负载均衡" style="whiteSpace=wrap;html=1;fillColor=#EDEDED;fontSize=14;strokeColor=none;verticalAlign=top;" vertex="1" parent="1">
          <mxGeometry x="300" y="1020" width="940" height="144.25" as="geometry" />
        </mxCell>
        <mxCell id="NJ1eLVqQCY84t7jj5M7B-49" value="应用服务" style="whiteSpace=wrap;html=1;fillColor=#FFD470;gradientColor=none;fontSize=14;strokeColor=none;verticalAlign=top;" vertex="1" parent="1">
          <mxGeometry x="300" y="1174.25" width="940" height="218" as="geometry" />
        </mxCell>
        <mxCell id="NJ1eLVqQCY84t7jj5M7B-50" style="edgeStyle=none;rounded=0;html=1;startSize=10;endSize=10;jettySize=auto;orthogonalLoop=1;fontSize=14;endArrow=none;endFill=0;strokeWidth=2;" edge="1" source="NJ1eLVqQCY84t7jj5M7B-51" target="NJ1eLVqQCY84t7jj5M7B-56" parent="1">
          <mxGeometry relative="1" as="geometry" />
        </mxCell>
        <mxCell id="NJ1eLVqQCY84t7jj5M7B-51" value="" style="verticalLabelPosition=bottom;aspect=fixed;html=1;verticalAlign=top;strokeColor=none;shape=mxgraph.citrix.xenapp_server;fillColor=#66B2FF;gradientColor=#0066CC;fontSize=14;" vertex="1" parent="1">
          <mxGeometry x="404.75" y="1280.25" width="76" height="89" as="geometry" />
        </mxCell>
        <mxCell id="NJ1eLVqQCY84t7jj5M7B-52" style="edgeStyle=none;rounded=0;html=1;startSize=10;endSize=10;jettySize=auto;orthogonalLoop=1;fontSize=14;endArrow=none;endFill=0;strokeWidth=2;exitX=0.161;exitY=0.249;exitDx=0;exitDy=0;exitPerimeter=0;" edge="1" source="NJ1eLVqQCY84t7jj5M7B-53" target="NJ1eLVqQCY84t7jj5M7B-56" parent="1">
          <mxGeometry relative="1" as="geometry" />
        </mxCell>
        <mxCell id="NJ1eLVqQCY84t7jj5M7B-53" value="" style="verticalLabelPosition=bottom;aspect=fixed;html=1;verticalAlign=top;strokeColor=none;shape=mxgraph.citrix.xenapp_server;fillColor=#66B2FF;gradientColor=#0066CC;fontSize=14;" vertex="1" parent="1">
          <mxGeometry x="575.25" y="1280" width="76" height="89" as="geometry" />
        </mxCell>
        <mxCell id="NJ1eLVqQCY84t7jj5M7B-56" value="" style="verticalLabelPosition=bottom;aspect=fixed;html=1;verticalAlign=top;strokeColor=none;shape=mxgraph.citrix.router;fillColor=#66B2FF;gradientColor=#0066CC;fontSize=14;" vertex="1" parent="1">
          <mxGeometry x="350" y="1099.0000000000005" width="55" height="36.5" as="geometry" />
        </mxCell>
        <mxCell id="NJ1eLVqQCY84t7jj5M7B-57" style="edgeStyle=none;rounded=0;html=1;startSize=10;endSize=10;jettySize=auto;orthogonalLoop=1;fontSize=14;endArrow=none;endFill=0;strokeWidth=2;" edge="1" target="NJ1eLVqQCY84t7jj5M7B-66" parent="1">
          <mxGeometry relative="1" as="geometry">
            <mxPoint x="477.25" y="1283" as="sourcePoint" />
            <mxPoint x="705.25" y="1134.25" as="targetPoint" />
          </mxGeometry>
        </mxCell>
        <mxCell id="NJ1eLVqQCY84t7jj5M7B-58" style="edgeStyle=none;rounded=0;html=1;startSize=10;endSize=10;jettySize=auto;orthogonalLoop=1;fontSize=14;endArrow=none;endFill=0;strokeWidth=2;" edge="1" source="NJ1eLVqQCY84t7jj5M7B-53" target="NJ1eLVqQCY84t7jj5M7B-66" parent="1">
          <mxGeometry relative="1" as="geometry">
            <mxPoint x="705.7538853503183" y="1280" as="sourcePoint" />
          </mxGeometry>
        </mxCell>
        <mxCell id="NJ1eLVqQCY84t7jj5M7B-59" style="edgeStyle=none;rounded=0;html=1;startSize=10;endSize=10;jettySize=auto;orthogonalLoop=1;fontSize=14;endArrow=none;endFill=0;strokeWidth=2;" edge="1" source="NJ1eLVqQCY84t7jj5M7B-60" target="NJ1eLVqQCY84t7jj5M7B-63" parent="1">
          <mxGeometry relative="1" as="geometry" />
        </mxCell>
        <mxCell id="NJ1eLVqQCY84t7jj5M7B-60" value="" style="verticalLabelPosition=bottom;aspect=fixed;html=1;verticalAlign=top;strokeColor=none;shape=mxgraph.citrix.xenapp_server;fillColor=#66B2FF;gradientColor=#0066CC;fontSize=14;" vertex="1" parent="1">
          <mxGeometry x="725.25" y="1280" width="76" height="89" as="geometry" />
        </mxCell>
        <mxCell id="NJ1eLVqQCY84t7jj5M7B-61" style="edgeStyle=none;rounded=0;html=1;startSize=10;endSize=10;jettySize=auto;orthogonalLoop=1;fontSize=14;endArrow=none;endFill=0;strokeWidth=2;exitX=0.161;exitY=0.249;exitDx=0;exitDy=0;exitPerimeter=0;" edge="1" source="NJ1eLVqQCY84t7jj5M7B-62" target="NJ1eLVqQCY84t7jj5M7B-63" parent="1">
          <mxGeometry relative="1" as="geometry" />
        </mxCell>
        <mxCell id="NJ1eLVqQCY84t7jj5M7B-62" value="" style="verticalLabelPosition=bottom;aspect=fixed;html=1;verticalAlign=top;strokeColor=none;shape=mxgraph.citrix.xenapp_server;fillColor=#66B2FF;gradientColor=#0066CC;fontSize=14;" vertex="1" parent="1">
          <mxGeometry x="895.75" y="1279.75" width="76" height="89" as="geometry" />
        </mxCell>
        <mxCell id="NJ1eLVqQCY84t7jj5M7B-63" value="" style="verticalLabelPosition=bottom;aspect=fixed;html=1;verticalAlign=top;strokeColor=none;shape=mxgraph.citrix.router;fillColor=#66B2FF;gradientColor=#0066CC;fontSize=14;" vertex="1" parent="1">
          <mxGeometry x="794" y="1099.0000000000005" width="55" height="36.5" as="geometry" />
        </mxCell>
        <mxCell id="NJ1eLVqQCY84t7jj5M7B-64" style="edgeStyle=none;rounded=0;html=1;startSize=10;endSize=10;jettySize=auto;orthogonalLoop=1;fontSize=14;endArrow=none;endFill=0;strokeWidth=2;exitX=0.136;exitY=0.062;exitDx=0;exitDy=0;exitPerimeter=0;" edge="1" source="NJ1eLVqQCY84t7jj5M7B-60" target="NJ1eLVqQCY84t7jj5M7B-66" parent="1">
          <mxGeometry relative="1" as="geometry">
            <mxPoint x="597.4859999999999" y="1312.161" as="sourcePoint" />
            <mxPoint x="625.25" y="1121" as="targetPoint" />
          </mxGeometry>
        </mxCell>
        <mxCell id="NJ1eLVqQCY84t7jj5M7B-65" style="edgeStyle=none;rounded=0;html=1;startSize=10;endSize=10;jettySize=auto;orthogonalLoop=1;fontSize=14;endArrow=none;endFill=0;strokeWidth=2;exitX=0.261;exitY=0.177;exitDx=0;exitDy=0;exitPerimeter=0;entryX=0.759;entryY=0.895;entryDx=0;entryDy=0;entryPerimeter=0;" edge="1" source="NJ1eLVqQCY84t7jj5M7B-62" target="NJ1eLVqQCY84t7jj5M7B-66" parent="1">
          <mxGeometry relative="1" as="geometry">
            <mxPoint x="756.9860000000003" y="1306.91" as="sourcePoint" />
            <mxPoint x="637" y="1131.2440000000001" as="targetPoint" />
          </mxGeometry>
        </mxCell>
        <mxCell id="NJ1eLVqQCY84t7jj5M7B-66" value="" style="verticalLabelPosition=bottom;aspect=fixed;html=1;verticalAlign=top;strokeColor=none;shape=mxgraph.citrix.router;fillColor=#66B2FF;gradientColor=#0066CC;fontSize=14;" vertex="1" parent="1">
          <mxGeometry x="498" y="1099.0000000000005" width="55" height="36.5" as="geometry" />
        </mxCell>
        <mxCell id="NJ1eLVqQCY84t7jj5M7B-67" style="edgeStyle=none;rounded=0;html=1;startSize=10;endSize=10;jettySize=auto;orthogonalLoop=1;fontSize=14;endArrow=none;endFill=0;strokeWidth=2;exitX=0.531;exitY=0.158;exitDx=0;exitDy=0;exitPerimeter=0;" edge="1" source="NJ1eLVqQCY84t7jj5M7B-53" target="NJ1eLVqQCY84t7jj5M7B-63" parent="1">
          <mxGeometry relative="1" as="geometry">
            <mxPoint x="773.25" y="1290" as="sourcePoint" />
            <mxPoint x="773.25" y="1139.5000000000002" as="targetPoint" />
          </mxGeometry>
        </mxCell>
        <mxCell id="NJ1eLVqQCY84t7jj5M7B-68" style="edgeStyle=none;rounded=0;html=1;startSize=10;endSize=10;jettySize=auto;orthogonalLoop=1;fontSize=14;endArrow=none;endFill=0;strokeWidth=2;entryX=0.153;entryY=0.813;entryDx=0;entryDy=0;entryPerimeter=0;exitX=0.838;exitY=0.204;exitDx=0;exitDy=0;exitPerimeter=0;" edge="1" source="NJ1eLVqQCY84t7jj5M7B-51" target="NJ1eLVqQCY84t7jj5M7B-63" parent="1">
          <mxGeometry relative="1" as="geometry">
            <mxPoint x="783.25" y="1300" as="sourcePoint" />
            <mxPoint x="783.25" y="1149.5000000000002" as="targetPoint" />
          </mxGeometry>
        </mxCell>
        <mxCell id="NJ1eLVqQCY84t7jj5M7B-69" value="轮换服务方案" style="text;strokeColor=none;fillColor=none;html=1;fontSize=24;fontStyle=1;verticalAlign=middle;align=center;" vertex="1" parent="1">
          <mxGeometry x="394" y="950" width="711" height="40" as="geometry" />
        </mxCell>
        <mxCell id="NJ1eLVqQCY84t7jj5M7B-70" value="&lt;span style=&quot;font-size: 14px&quot;&gt;展前服务实例&lt;/span&gt;" style="text;html=1;strokeColor=none;fillColor=none;align=center;verticalAlign=middle;whiteSpace=wrap;rounded=0;" vertex="1" parent="1">
          <mxGeometry x="326" y="1069" width="100" height="20" as="geometry" />
        </mxCell>
        <mxCell id="NJ1eLVqQCY84t7jj5M7B-71" value="&lt;span style=&quot;font-size: 14px&quot;&gt;展中第1天服务实例&lt;/span&gt;" style="text;html=1;strokeColor=none;fillColor=none;align=center;verticalAlign=middle;whiteSpace=wrap;rounded=0;" vertex="1" parent="1">
          <mxGeometry x="600.75" y="1069" width="134.5" height="20" as="geometry" />
        </mxCell>
        <mxCell id="NJ1eLVqQCY84t7jj5M7B-72" value="&lt;span style=&quot;font-size: 14px&quot;&gt;展中第2天服务实例&lt;/span&gt;" style="text;html=1;strokeColor=none;fillColor=none;align=center;verticalAlign=middle;whiteSpace=wrap;rounded=0;" vertex="1" parent="1">
          <mxGeometry x="755" y="1069" width="125" height="20" as="geometry" />
        </mxCell>
        <mxCell id="NJ1eLVqQCY84t7jj5M7B-73" value="&lt;span style=&quot;font-size: 14px&quot;&gt;展前一天服务实例&lt;/span&gt;" style="text;html=1;strokeColor=none;fillColor=none;align=center;verticalAlign=middle;whiteSpace=wrap;rounded=0;" vertex="1" parent="1">
          <mxGeometry x="455.25" y="1069" width="130" height="20" as="geometry" />
        </mxCell>
        <mxCell id="NJ1eLVqQCY84t7jj5M7B-74" style="edgeStyle=none;rounded=0;html=1;startSize=10;endSize=10;jettySize=auto;orthogonalLoop=1;fontSize=14;endArrow=none;endFill=0;strokeWidth=2;exitX=0.669;exitY=0.107;exitDx=0;exitDy=0;exitPerimeter=0;" edge="1" target="NJ1eLVqQCY84t7jj5M7B-77" parent="1" source="NJ1eLVqQCY84t7jj5M7B-51">
          <mxGeometry relative="1" as="geometry">
            <mxPoint x="626.91" y="1277" as="sourcePoint" />
            <mxPoint x="854.91" y="1128.25" as="targetPoint" />
          </mxGeometry>
        </mxCell>
        <mxCell id="NJ1eLVqQCY84t7jj5M7B-75" style="edgeStyle=none;rounded=0;html=1;startSize=10;endSize=10;jettySize=auto;orthogonalLoop=1;fontSize=14;endArrow=none;endFill=0;strokeWidth=2;" edge="1" target="NJ1eLVqQCY84t7jj5M7B-77" parent="1">
          <mxGeometry relative="1" as="geometry">
            <mxPoint x="762.91" y="1274" as="sourcePoint" />
          </mxGeometry>
        </mxCell>
        <mxCell id="NJ1eLVqQCY84t7jj5M7B-76" style="edgeStyle=none;rounded=0;html=1;startSize=10;endSize=10;jettySize=auto;orthogonalLoop=1;fontSize=14;endArrow=none;endFill=0;strokeWidth=2;" edge="1" target="NJ1eLVqQCY84t7jj5M7B-77" parent="1">
          <mxGeometry relative="1" as="geometry">
            <mxPoint x="625.25" y="1290" as="sourcePoint" />
            <mxPoint x="774.91" y="1115" as="targetPoint" />
          </mxGeometry>
        </mxCell>
        <mxCell id="NJ1eLVqQCY84t7jj5M7B-77" value="" style="verticalLabelPosition=bottom;aspect=fixed;html=1;verticalAlign=top;strokeColor=none;shape=mxgraph.citrix.router;fillColor=#66B2FF;gradientColor=#0066CC;fontSize=14;" vertex="1" parent="1">
          <mxGeometry x="646" y="1099.0000000000005" width="55" height="36.5" as="geometry" />
        </mxCell>
        <mxCell id="NJ1eLVqQCY84t7jj5M7B-78" style="edgeStyle=none;rounded=0;html=1;startSize=10;endSize=10;jettySize=auto;orthogonalLoop=1;fontSize=14;endArrow=none;endFill=0;strokeWidth=2;exitX=0.449;exitY=0.129;exitDx=0;exitDy=0;exitPerimeter=0;entryX=0.759;entryY=0.895;entryDx=0;entryDy=0;entryPerimeter=0;" edge="1" target="NJ1eLVqQCY84t7jj5M7B-77" parent="1" source="NJ1eLVqQCY84t7jj5M7B-62">
          <mxGeometry relative="1" as="geometry">
            <mxPoint x="1065.2459999999996" y="1289.5030000000002" as="sourcePoint" />
            <mxPoint x="786.66" y="1125.2440000000001" as="targetPoint" />
          </mxGeometry>
        </mxCell>
        <mxCell id="NJ1eLVqQCY84t7jj5M7B-79" style="edgeStyle=none;rounded=0;html=1;startSize=10;endSize=10;jettySize=auto;orthogonalLoop=1;fontSize=14;endArrow=none;endFill=0;strokeWidth=2;" edge="1" target="NJ1eLVqQCY84t7jj5M7B-81" parent="1">
          <mxGeometry relative="1" as="geometry">
            <mxPoint x="926.4083715319659" y="1280" as="sourcePoint" />
          </mxGeometry>
        </mxCell>
        <mxCell id="NJ1eLVqQCY84t7jj5M7B-80" style="edgeStyle=none;rounded=0;html=1;startSize=10;endSize=10;jettySize=auto;orthogonalLoop=1;fontSize=14;endArrow=none;endFill=0;strokeWidth=2;" edge="1" target="NJ1eLVqQCY84t7jj5M7B-81" parent="1">
          <mxGeometry relative="1" as="geometry">
            <mxPoint x="620" y="1290" as="sourcePoint" />
          </mxGeometry>
        </mxCell>
        <mxCell id="NJ1eLVqQCY84t7jj5M7B-81" value="" style="verticalLabelPosition=bottom;aspect=fixed;html=1;verticalAlign=top;strokeColor=none;shape=mxgraph.citrix.router;fillColor=#66B2FF;gradientColor=#0066CC;fontSize=14;" vertex="1" parent="1">
          <mxGeometry x="941.51" y="1099.0000000000005" width="55" height="36.5" as="geometry" />
        </mxCell>
        <mxCell id="NJ1eLVqQCY84t7jj5M7B-82" value="&lt;span style=&quot;font-size: 14px&quot;&gt;展中第n天服务实例&lt;/span&gt;" style="text;html=1;strokeColor=none;fillColor=none;align=center;verticalAlign=middle;whiteSpace=wrap;rounded=0;" vertex="1" parent="1">
          <mxGeometry x="906.51" y="1069" width="125" height="20" as="geometry" />
        </mxCell>
        <mxCell id="NJ1eLVqQCY84t7jj5M7B-83" style="edgeStyle=none;rounded=0;html=1;startSize=10;endSize=10;jettySize=auto;orthogonalLoop=1;fontSize=14;endArrow=none;endFill=0;strokeWidth=2;entryX=0.153;entryY=0.813;entryDx=0;entryDy=0;entryPerimeter=0;" edge="1" target="NJ1eLVqQCY84t7jj5M7B-81" parent="1">
          <mxGeometry relative="1" as="geometry">
            <mxPoint x="460" y="1290" as="sourcePoint" />
            <mxPoint x="934.76" y="1149.5000000000002" as="targetPoint" />
          </mxGeometry>
        </mxCell>
        <mxCell id="NJ1eLVqQCY84t7jj5M7B-84" style="edgeStyle=none;rounded=0;html=1;startSize=10;endSize=10;jettySize=auto;orthogonalLoop=1;fontSize=14;endArrow=none;endFill=0;strokeWidth=2;exitX=0.531;exitY=0.158;exitDx=0;exitDy=0;exitPerimeter=0;" edge="1" target="NJ1eLVqQCY84t7jj5M7B-81" parent="1">
          <mxGeometry relative="1" as="geometry">
            <mxPoint x="767.1159999999998" y="1294.062" as="sourcePoint" />
            <mxPoint x="924.76" y="1139.5000000000002" as="targetPoint" />
          </mxGeometry>
        </mxCell>
        <mxCell id="NJ1eLVqQCY84t7jj5M7B-85" value="A" style="text;strokeColor=none;fillColor=none;html=1;fontSize=24;fontStyle=1;verticalAlign=middle;align=center;" vertex="1" parent="1">
          <mxGeometry x="215.5" y="410" width="55.5" height="30" as="geometry" />
        </mxCell>
        <mxCell id="NJ1eLVqQCY84t7jj5M7B-86" value="A" style="text;strokeColor=none;fillColor=none;html=1;fontSize=24;fontStyle=1;verticalAlign=middle;align=center;" vertex="1" parent="1">
          <mxGeometry x="1152" y="416" width="55.5" height="30" as="geometry" />
        </mxCell>
        <mxCell id="NJ1eLVqQCY84t7jj5M7B-87" value="A" style="text;strokeColor=none;fillColor=none;html=1;fontSize=24;fontStyle=1;verticalAlign=middle;align=center;" vertex="1" parent="1">
          <mxGeometry x="400" y="1114.9999999999998" width="55.5" height="30" as="geometry" />
        </mxCell>
        <mxCell id="NJ1eLVqQCY84t7jj5M7B-88" value="B" style="text;strokeColor=none;fillColor=none;html=1;fontSize=24;fontStyle=1;verticalAlign=middle;align=center;" vertex="1" parent="1">
          <mxGeometry x="490.5" y="410" width="55.5" height="30" as="geometry" />
        </mxCell>
        <mxCell id="NJ1eLVqQCY84t7jj5M7B-89" value="B" style="text;strokeColor=none;fillColor=none;html=1;fontSize=24;fontStyle=1;verticalAlign=middle;align=center;" vertex="1" parent="1">
          <mxGeometry x="1355.25" y="416" width="55.5" height="30" as="geometry" />
        </mxCell>
        <mxCell id="NJ1eLVqQCY84t7jj5M7B-90" value="B" style="text;strokeColor=none;fillColor=none;html=1;fontSize=24;fontStyle=1;verticalAlign=middle;align=center;" vertex="1" parent="1">
          <mxGeometry x="553" y="1114.9999999999998" width="55.5" height="30" as="geometry" />
        </mxCell>
        <mxCell id="NJ1eLVqQCY84t7jj5M7B-91" value="C" style="text;strokeColor=none;fillColor=none;html=1;fontSize=24;fontStyle=1;verticalAlign=middle;align=center;" vertex="1" parent="1">
          <mxGeometry x="1592" y="416" width="55.5" height="30" as="geometry" />
        </mxCell>
        <mxCell id="NJ1eLVqQCY84t7jj5M7B-92" value="C" style="text;strokeColor=none;fillColor=none;html=1;fontSize=24;fontStyle=1;verticalAlign=middle;align=center;" vertex="1" parent="1">
          <mxGeometry x="713.75" y="1114.9999999999995" width="55.5" height="30" as="geometry" />
        </mxCell>
        <mxCell id="NJ1eLVqQCY84t7jj5M7B-93" value="D" style="text;strokeColor=none;fillColor=none;html=1;fontSize=24;fontStyle=1;verticalAlign=middle;align=center;" vertex="1" parent="1">
          <mxGeometry x="849" y="1114.9999999999998" width="55.5" height="30" as="geometry" />
        </mxCell>
        <mxCell id="NJ1eLVqQCY84t7jj5M7B-94" value="E" style="text;strokeColor=none;fillColor=none;html=1;fontSize=24;fontStyle=1;verticalAlign=middle;align=center;" vertex="1" parent="1">
          <mxGeometry x="1010" y="1114.9999999999998" width="55.5" height="30" as="geometry" />
        </mxCell>
        <mxCell id="NJ1eLVqQCY84t7jj5M7B-95" value="" style="verticalLabelPosition=bottom;aspect=fixed;html=1;verticalAlign=top;strokeColor=none;shape=mxgraph.citrix.router;fillColor=#66B2FF;gradientColor=#0066CC;fontSize=14;" vertex="1" parent="1">
          <mxGeometry x="611.5" y="396" width="55" height="36.5" as="geometry" />
        </mxCell>
        <mxCell id="NJ1eLVqQCY84t7jj5M7B-96" value="Z" style="text;strokeColor=none;fillColor=none;html=1;fontSize=24;fontStyle=1;verticalAlign=middle;align=center;" vertex="1" parent="1">
          <mxGeometry x="658.25" y="415.9999999999999" width="55.5" height="30" as="geometry" />
        </mxCell>
        <mxCell id="NJ1eLVqQCY84t7jj5M7B-98" style="edgeStyle=none;rounded=0;html=1;startSize=10;endSize=10;jettySize=auto;orthogonalLoop=1;fontSize=14;endArrow=none;endFill=0;strokeWidth=2;entryX=0.56;entryY=1.046;entryDx=0;entryDy=0;entryPerimeter=0;exitX=0.73;exitY=0.149;exitDx=0;exitDy=0;exitPerimeter=0;" edge="1" parent="1" source="6a7d8f32e03d9370-12" target="NJ1eLVqQCY84t7jj5M7B-95">
          <mxGeometry relative="1" as="geometry">
            <mxPoint x="467.5" y="600" as="sourcePoint" />
            <mxPoint x="467.5" y="446.5" as="targetPoint" />
          </mxGeometry>
        </mxCell>
        <mxCell id="NJ1eLVqQCY84t7jj5M7B-99" style="edgeStyle=none;rounded=0;html=1;startSize=10;endSize=10;jettySize=auto;orthogonalLoop=1;fontSize=14;endArrow=none;endFill=0;strokeWidth=2;entryX=0.196;entryY=0.797;entryDx=0;entryDy=0;entryPerimeter=0;exitX=0.928;exitY=0.337;exitDx=0;exitDy=0;exitPerimeter=0;" edge="1" parent="1" source="6a7d8f32e03d9370-11" target="NJ1eLVqQCY84t7jj5M7B-95">
          <mxGeometry relative="1" as="geometry">
            <mxPoint x="484.98" y="613.2610000000002" as="sourcePoint" />
            <mxPoint x="652.2999999999997" y="444.1790000000001" as="targetPoint" />
          </mxGeometry>
        </mxCell>
        <mxCell id="NJ1eLVqQCY84t7jj5M7B-101" value="&lt;span style=&quot;font-size: 14px&quot;&gt;出入口服务实例&lt;br&gt;&lt;/span&gt;" style="text;html=1;strokeColor=none;fillColor=none;align=center;verticalAlign=middle;whiteSpace=wrap;rounded=0;" vertex="1" parent="1">
          <mxGeometry x="611" y="370" width="144" height="20" as="geometry" />
        </mxCell>
        <mxCell id="NJ1eLVqQCY84t7jj5M7B-102" value="" style="verticalLabelPosition=bottom;aspect=fixed;html=1;verticalAlign=top;strokeColor=none;shape=mxgraph.citrix.router;fillColor=#66B2FF;gradientColor=#0066CC;fontSize=14;" vertex="1" parent="1">
          <mxGeometry x="1660.5" y="398" width="55" height="36.5" as="geometry" />
        </mxCell>
        <mxCell id="NJ1eLVqQCY84t7jj5M7B-103" value="Z" style="text;strokeColor=none;fillColor=none;html=1;fontSize=24;fontStyle=1;verticalAlign=middle;align=center;" vertex="1" parent="1">
          <mxGeometry x="1707.25" y="417.9999999999999" width="55.5" height="30" as="geometry" />
        </mxCell>
        <mxCell id="NJ1eLVqQCY84t7jj5M7B-104" value="&lt;span style=&quot;font-size: 14px&quot;&gt;出入口服务实例&lt;br&gt;&lt;/span&gt;" style="text;html=1;strokeColor=none;fillColor=none;align=center;verticalAlign=middle;whiteSpace=wrap;rounded=0;" vertex="1" parent="1">
          <mxGeometry x="1660" y="372" width="144" height="20" as="geometry" />
        </mxCell>
        <mxCell id="NJ1eLVqQCY84t7jj5M7B-105" style="edgeStyle=none;rounded=0;html=1;startSize=10;endSize=10;jettySize=auto;orthogonalLoop=1;fontSize=14;endArrow=none;endFill=0;strokeWidth=2;" edge="1" parent="1">
          <mxGeometry relative="1" as="geometry">
            <mxPoint x="1590.1874566473987" y="596.83" as="sourcePoint" />
            <mxPoint x="1685.6591329479763" y="443.33" as="targetPoint" />
          </mxGeometry>
        </mxCell>
        <mxCell id="NJ1eLVqQCY84t7jj5M7B-106" style="edgeStyle=none;rounded=0;html=1;startSize=10;endSize=10;jettySize=auto;orthogonalLoop=1;fontSize=14;endArrow=none;endFill=0;strokeWidth=2;entryX=0.153;entryY=0.813;entryDx=0;entryDy=0;entryPerimeter=0;exitX=0.838;exitY=0.204;exitDx=0;exitDy=0;exitPerimeter=0;" edge="1" parent="1">
          <mxGeometry relative="1" as="geometry">
            <mxPoint x="1267.6979999999996" y="615.236" as="sourcePoint" />
            <mxPoint x="1677.925" y="436.50449999999984" as="targetPoint" />
          </mxGeometry>
        </mxCell>
        <mxCell id="NJ1eLVqQCY84t7jj5M7B-107" style="edgeStyle=none;rounded=0;html=1;startSize=10;endSize=10;jettySize=auto;orthogonalLoop=1;fontSize=14;endArrow=none;endFill=0;strokeWidth=2;exitX=0.531;exitY=0.158;exitDx=0;exitDy=0;exitPerimeter=0;" edge="1" parent="1">
          <mxGeometry relative="1" as="geometry">
            <mxPoint x="1414.8660000000002" y="610.8919999999997" as="sourcePoint" />
            <mxPoint x="1669.5099999999995" y="443.19071651355335" as="targetPoint" />
          </mxGeometry>
        </mxCell>
        <mxCell id="NJ1eLVqQCY84t7jj5M7B-108" style="edgeStyle=none;rounded=0;html=1;startSize=10;endSize=10;jettySize=auto;orthogonalLoop=1;fontSize=14;endArrow=none;endFill=0;strokeWidth=2;" edge="1" parent="1" source="NJ1eLVqQCY84t7jj5M7B-9">
          <mxGeometry relative="1" as="geometry">
            <mxPoint x="1707.2459999999999" y="618.7410000000001" as="sourcePoint" />
            <mxPoint x="1680" y="430" as="targetPoint" />
          </mxGeometry>
        </mxCell>
        <mxCell id="NJ1eLVqQCY84t7jj5M7B-109" value="" style="verticalLabelPosition=bottom;aspect=fixed;html=1;verticalAlign=top;strokeColor=none;shape=mxgraph.citrix.router;fillColor=#66B2FF;gradientColor=#0066CC;fontSize=14;" vertex="1" parent="1">
          <mxGeometry x="1086.5" y="1095" width="55" height="36.5" as="geometry" />
        </mxCell>
        <mxCell id="NJ1eLVqQCY84t7jj5M7B-110" value="Z" style="text;strokeColor=none;fillColor=none;html=1;fontSize=24;fontStyle=1;verticalAlign=middle;align=center;" vertex="1" parent="1">
          <mxGeometry x="1133.25" y="1115" width="55.5" height="30" as="geometry" />
        </mxCell>
        <mxCell id="NJ1eLVqQCY84t7jj5M7B-111" value="&lt;span style=&quot;font-size: 14px&quot;&gt;出入口服务实例&lt;br&gt;&lt;/span&gt;" style="text;html=1;strokeColor=none;fillColor=none;align=center;verticalAlign=middle;whiteSpace=wrap;rounded=0;" vertex="1" parent="1">
          <mxGeometry x="1086" y="1069" width="144" height="20" as="geometry" />
        </mxCell>
        <mxCell id="NJ1eLVqQCY84t7jj5M7B-112" style="edgeStyle=none;rounded=0;html=1;startSize=10;endSize=10;jettySize=auto;orthogonalLoop=1;fontSize=14;endArrow=none;endFill=0;strokeWidth=2;exitX=0.531;exitY=0.158;exitDx=0;exitDy=0;exitPerimeter=0;" edge="1" parent="1">
          <mxGeometry relative="1" as="geometry">
            <mxPoint x="927.116" y="1300.8919999999998" as="sourcePoint" />
            <mxPoint x="1108.1711118023663" y="1142.3300000000004" as="targetPoint" />
          </mxGeometry>
        </mxCell>
        <mxCell id="NJ1eLVqQCY84t7jj5M7B-113" style="edgeStyle=none;rounded=0;html=1;startSize=10;endSize=10;jettySize=auto;orthogonalLoop=1;fontSize=14;endArrow=none;endFill=0;strokeWidth=2;" edge="1" parent="1">
          <mxGeometry relative="1" as="geometry">
            <mxPoint x="780" y="1296.83" as="sourcePoint" />
            <mxPoint x="1101.5100000000002" y="1137.691715996676" as="targetPoint" />
          </mxGeometry>
        </mxCell>
        <mxCell id="NJ1eLVqQCY84t7jj5M7B-114" style="edgeStyle=none;rounded=0;html=1;startSize=10;endSize=10;jettySize=auto;orthogonalLoop=1;fontSize=14;endArrow=none;endFill=0;strokeWidth=2;entryX=0.153;entryY=0.813;entryDx=0;entryDy=0;entryPerimeter=0;" edge="1" parent="1">
          <mxGeometry relative="1" as="geometry">
            <mxPoint x="620" y="1296.83" as="sourcePoint" />
            <mxPoint x="1109.9250000000002" y="1135.5045000000005" as="targetPoint" />
          </mxGeometry>
        </mxCell>
        <mxCell id="NJ1eLVqQCY84t7jj5M7B-115" style="edgeStyle=none;rounded=0;html=1;startSize=10;endSize=10;jettySize=auto;orthogonalLoop=1;fontSize=14;endArrow=none;endFill=0;strokeWidth=2;exitX=0.621;exitY=0.157;exitDx=0;exitDy=0;exitPerimeter=0;entryX=0.331;entryY=0.824;entryDx=0;entryDy=0;entryPerimeter=0;" edge="1" parent="1" source="NJ1eLVqQCY84t7jj5M7B-51" target="NJ1eLVqQCY84t7jj5M7B-109">
          <mxGeometry relative="1" as="geometry">
            <mxPoint x="1086.4083715319657" y="1286.83" as="sourcePoint" />
            <mxPoint x="1124.232858866104" y="1142.3300000000004" as="targetPoint" />
          </mxGeometry>
        </mxCell>
      </root>
    </mxGraphModel>
  </diagram>
</mxfile>
